<svg xmlns="http://www.w3.org/2000/svg" width="512" height="512" viewBox="0 0 512 512">
  <rect width="512" height="512" rx="102" ry="102" fill="#232A5C"/>
  <path transform="matrix(0.221 0 0 -0.221 57.023 405.748)" fill="#FF6B4A" stroke="#FF6B4A" stroke-width="100" stroke-linejoin="round" stroke-linecap="round" d="M652 1246Q652 1096 589 966Q526 836 412 741Q298 646 150 598L72 722Q204 762 307 841Q410 920 467 1025Q524 1130 524 1246L524 1322L652 1322L652 1246ZM678 1246Q678 1138 734 1041Q790 944 890 870Q990 796 1120 756L1046 632Q898 678 786 769Q674 860 612 983Q550 1106 550 1246L550 1322L678 1322L678 1246ZM1080 1278L122 1278L122 1404L1080 1404ZM682 1354L524 1354L524 1624L682 1624ZM1462 562L1306 562L1306 1616L1462 1616ZM1730 1032L1418 1032L1418 1164L1730 1164ZM1462 -138L340 -138L340 480L1462 480ZM494 -10L1306 -10L1306 356L494 356Z"/>
</svg>
